<svg version="1.1" id="Layer_1" xmlns="http://www.w3.org/2000/svg" xmlns:xlink="http://www.w3.org/1999/xlink" x="0px" y="0px"
	 width="100%" viewBox="0 0 1200 1200" enable-background="new 0 0 1200 1200" xml:space="preserve">
<path fill="#000000" opacity="1.000000" stroke="none" 
	d="
M576.000000,1201.000000 
	C384.000000,1201.000000 192.500000,1201.000000 1.000000,1201.000000 
	C1.000000,801.000000 1.000000,401.000000 1.000000,1.000000 
	C401.000000,1.000000 801.000000,1.000000 1201.000000,1.000000 
	C1201.000000,401.000000 1201.000000,801.000000 1201.000000,1201.000000 
	C992.833313,1201.000000 784.666687,1201.000000 576.000000,1201.000000 
M804.718689,650.176147 
	C806.062866,650.590027 807.407043,651.003906 809.000000,651.494385 
	C809.000000,659.879700 808.532959,668.396729 809.174316,676.829468 
	C809.562317,681.931335 808.449585,687.892761 813.364502,691.813049 
	C819.375061,696.607239 826.644470,695.585632 833.235046,694.619141 
	C838.523560,693.843506 841.778931,689.155334 842.504639,683.378784 
	C842.931885,696.606628 860.890564,698.480713 869.177673,690.938232 
	C874.660034,696.990173 881.883545,694.893311 888.579407,694.642456 
	C890.121521,694.584778 892.284485,692.296143 892.913330,690.577454 
	C894.230042,686.978577 894.716125,683.075684 895.543274,679.297668 
	C894.764160,679.069763 893.985046,678.841858 893.205872,678.613953 
	C892.178040,682.060913 891.150208,685.507874 890.122375,688.954773 
	C889.682556,688.993835 889.242676,689.032898 888.802795,689.071960 
	C888.201904,687.236877 887.129578,685.413818 887.082214,683.564453 
	C886.886108,675.908569 887.134888,668.241455 886.952515,660.584900 
	C886.831543,655.506165 885.442139,650.551270 880.124268,648.745483 
	C870.249756,645.392456 860.257385,644.934692 850.618591,649.862183 
	C846.347656,652.045593 844.111816,659.924561 846.475952,663.954285 
	C848.463928,667.342773 855.706543,668.896667 859.621643,666.774719 
	C863.861511,664.476746 865.552917,656.593872 862.366516,654.048523 
	C861.548401,653.395020 860.801941,652.651672 860.022522,651.949646 
	C861.245850,651.049927 862.425354,649.536926 863.706543,649.445251 
	C864.724976,649.372437 866.694153,650.935425 866.819153,651.947754 
	C867.553406,657.892151 867.869995,663.888123 868.312744,669.674927 
	C862.533997,670.407104 857.599609,670.626343 852.868469,671.722839 
	C844.913025,673.566650 840.647278,679.652100 836.962585,686.425293 
	C836.078430,688.050598 833.594604,688.805664 831.846436,689.960938 
	C830.898621,688.359497 829.164124,686.774780 829.129639,685.153931 
	C828.889893,673.885071 829.003052,662.608826 829.003052,650.959351 
	C833.195740,650.959351 836.952332,650.959351 841.036743,650.959351 
	C840.869385,649.370544 840.745605,648.195251 840.601196,646.824463 
	C836.591248,646.824463 832.974060,646.824463 829.002441,646.824463 
	C829.002441,641.498291 829.002441,636.398438 829.002441,630.449524 
	C822.006775,632.115601 815.546692,633.654114 808.830994,635.253479 
	C808.830994,639.380798 808.830994,643.154907 808.830994,646.803772 
	C806.668457,647.432617 803.250610,645.608521 803.500854,650.603516 
	C796.092957,644.409363 788.975525,645.151550 782.111511,652.042236 
	C782.003723,650.068848 781.925659,648.638428 781.836182,647.000427 
	C774.551270,647.000427 767.559753,646.867188 760.582031,647.118042 
	C759.259705,647.165588 757.992188,648.736816 756.699341,649.605042 
	C756.950928,650.095764 757.202515,650.586548 757.454102,651.077332 
	C758.870728,651.077332 760.287354,651.077332 761.821289,651.077332 
	C761.821289,664.540161 761.821289,677.656921 761.821289,690.123352 
	C759.879517,691.171631 758.346863,691.999023 756.814270,692.826416 
	C756.992554,693.090027 757.170837,693.353577 757.349182,693.617188 
	C767.883362,693.617188 778.417542,693.617188 789.389038,693.617188 
	C788.060120,689.088928 784.308594,692.187073 782.004272,690.318359 
	C782.004272,681.353088 781.871399,672.056396 782.104370,662.768921 
	C782.157837,660.639771 783.008911,658.179688 784.314941,656.518066 
	C786.108887,654.235596 787.794617,650.677429 792.134766,652.573608 
	C790.300903,654.664612 787.827332,656.300964 787.199402,658.471252 
	C786.190918,661.956909 787.451477,665.332397 791.342773,666.754211 
	C796.125671,668.501892 802.372681,666.895203 803.218506,663.103516 
	C804.170471,658.836121 803.770996,654.267273 804.718689,650.176147 
M603.500000,499.000000 
	C625.261475,499.000000 647.023010,499.000000 668.712952,499.000000 
	C668.712952,464.689972 668.712952,430.953705 668.712952,397.286469 
	C624.689880,397.286469 580.954468,397.286469 537.286987,397.286469 
	C537.286987,431.309998 537.286987,465.046265 537.286987,499.000000 
	C559.215515,499.000000 580.857788,499.000000 603.500000,499.000000 
M700.313354,631.028992 
	C698.494568,630.024231 696.732300,628.275146 694.848022,628.132080 
	C679.293030,626.951050 663.715454,626.067688 647.981018,625.083923 
	C647.987427,631.266541 652.403259,627.544678 654.000000,629.925476 
	C654.000000,639.705566 654.000000,649.851807 654.000000,659.998047 
	C654.000000,670.265686 654.000000,680.533264 654.000000,690.709778 
	C650.015503,690.709778 646.608093,690.709778 643.493103,690.709778 
	C642.986145,679.686890 642.534790,668.964722 641.980164,658.247864 
	C641.747314,653.746582 640.054504,649.667175 635.523926,648.353516 
	C631.697876,647.244141 627.399231,646.657043 623.504639,647.210266 
	C619.792542,647.737549 616.332397,650.038330 612.962463,651.473877 
	C612.962463,650.720459 612.962463,649.065491 612.962463,647.268188 
	C604.921631,647.268188 597.001282,647.268188 589.080933,647.268188 
	C588.829468,647.782349 588.578003,648.296570 588.326599,648.810730 
	C590.067871,649.845093 591.809082,650.879395 593.746948,652.030457 
	C593.746948,664.658997 593.746948,677.758606 593.746948,690.148804 
	C591.756836,691.116821 590.263000,691.843384 588.769165,692.569946 
	C588.999329,693.046143 589.229492,693.522278 589.459595,693.998413 
	C598.272766,693.998413 607.085938,694.003662 615.899109,693.987549 
	C616.539368,693.986389 617.179382,693.829773 617.819519,693.745483 
	C617.997070,693.267883 618.174622,692.790344 618.352234,692.312805 
	C616.590271,691.606018 614.828308,690.899292 613.000000,690.165894 
	C613.000000,687.024292 612.806213,683.845947 613.039062,680.699219 
	C613.580444,673.382141 613.968079,666.019226 615.193481,658.806580 
	C615.602478,656.399292 618.367920,654.392395 620.367371,651.798828 
	C623.326233,656.677429 624.107849,675.361938 622.754333,690.105591 
	C621.203491,691.217346 619.960388,692.108459 618.717285,692.999634 
	C618.889587,693.333069 619.061829,693.666565 619.234070,694.000000 
	C622.054138,694.000000 624.874146,694.000000 627.694214,694.000000 
	C646.027100,693.999939 664.360107,694.028564 682.692444,693.928894 
	C683.790894,693.922913 684.883667,692.891357 685.979065,692.337036 
	C684.940308,691.891418 683.921021,691.126404 682.859009,691.061462 
	C679.949768,690.883545 677.022522,691.000122 674.332031,691.000122 
	C674.332031,682.572876 674.332031,674.823608 674.332031,667.436768 
	C678.763916,666.929749 682.825195,666.449402 686.890259,666.003418 
	C694.665710,665.150208 701.770569,662.409485 704.539734,654.691956 
	C707.409424,646.693970 707.679993,638.331604 700.313354,631.028992 
M410.812073,647.329834 
	C402.912476,647.329834 395.012909,647.329834 387.113312,647.329834 
	C386.884674,647.791016 386.656067,648.252136 386.427429,648.713318 
	C388.175751,649.795898 389.924103,650.878479 391.866821,652.081421 
	C391.866821,672.232605 391.866821,692.862183 391.866821,713.328552 
	C390.006836,713.986816 388.310730,714.587097 386.614655,715.187378 
	C386.768616,715.790894 386.922577,716.394409 387.076508,716.997925 
	C398.704224,716.997925 410.332397,717.036560 421.958710,716.909668 
	C422.722321,716.901367 423.472107,715.627808 424.228333,714.942749 
	C423.997925,714.592346 423.767517,714.242004 423.537109,713.891602 
	C419.777130,713.891602 416.017181,713.891602 412.224579,713.891602 
	C412.224579,706.810120 412.224579,700.128296 412.224579,694.823853 
	C417.635193,694.870056 422.890320,695.435608 427.998810,694.807800 
	C432.818451,694.215576 436.611206,691.250732 438.767273,686.622803 
	C443.500183,676.463684 443.441254,665.969971 439.108643,655.999634 
	C437.499512,652.296570 433.178375,648.503723 429.313995,647.338257 
	C423.105133,645.465820 416.219849,645.630005 410.985016,652.593079 
	C410.985016,650.403198 410.985016,649.289856 410.812073,647.329834 
M313.100555,666.971130 
	C314.346039,666.647461 315.574127,666.206726 316.839752,666.018921 
	C325.893158,664.674988 332.567841,662.150879 335.765869,650.612915 
	C338.520966,640.673279 333.495483,629.770203 323.484039,628.313538 
	C308.576294,626.144470 293.366058,626.054199 278.284515,625.079346 
	C278.101379,625.972351 277.918243,626.865356 277.735077,627.758362 
	C279.693420,628.360107 281.651733,628.961914 283.999878,629.683472 
	C283.999878,648.876587 284.001678,668.342651 283.994415,687.808655 
	C283.994049,688.773010 283.914795,689.737305 283.892303,690.246826 
	C281.568787,691.047119 279.658508,691.705139 277.748199,692.363098 
	C277.937714,692.908264 278.127228,693.453430 278.316742,693.998596 
	C290.119995,693.998596 301.923492,694.029663 313.725800,693.925903 
	C314.480896,693.919312 315.226807,692.868591 315.976990,692.303650 
	C315.261200,691.869690 314.559906,691.091980 313.827087,691.060974 
	C310.583923,690.924011 307.331757,691.001709 304.341858,691.001709 
	C304.341858,682.549683 304.341858,674.800537 304.341858,666.998047 
	C307.182648,666.998047 309.681732,666.998047 313.100555,666.971130 
M493.304596,685.837402 
	C501.772095,696.648193 513.143799,696.021301 524.988525,694.095886 
	C529.860168,693.304077 533.563660,691.046143 535.971985,686.917847 
	C541.377441,677.652039 541.547546,667.849915 537.938049,658.007019 
	C536.033447,652.813110 532.160278,648.927307 526.574402,648.130005 
	C520.454895,647.256653 514.060425,646.388123 508.031860,647.246277 
	C498.811188,648.558838 493.122955,654.474854 490.907501,663.872803 
	C489.149231,671.331299 490.175262,678.252747 493.304596,685.837402 
M746.922363,691.598083 
	C752.263184,688.099731 755.004883,682.891479 755.591675,676.794373 
	C756.422607,668.160095 757.238953,659.233459 749.957397,652.521301 
	C741.664551,644.876953 731.599182,645.524048 721.744934,647.868164 
	C707.063599,651.360535 704.105774,665.401855 706.649536,677.901917 
	C707.528931,682.223145 710.150330,687.129395 713.527100,689.826599 
	C723.615662,697.885010 734.979065,696.396118 746.922363,691.598083 
M336.000000,666.800903 
	C336.000000,669.798096 335.772949,672.816162 336.044983,675.788452 
	C336.713135,683.088440 339.615234,689.460144 346.445160,692.658813 
	C353.915405,696.157410 362.131317,695.868835 370.030792,694.334351 
	C376.742096,693.030640 381.727844,688.834412 383.946442,682.134766 
	C385.954803,676.069946 386.519073,669.939636 385.115936,663.489258 
	C383.683228,656.903015 381.298126,650.995056 374.515686,649.106079 
	C368.994232,647.568359 363.034760,647.235168 357.250916,647.085388 
	C345.628052,646.784424 337.433807,654.997131 336.000000,666.800903 
M901.609253,694.000000 
	C909.385681,694.000000 917.162170,694.000000 925.080200,694.000000 
	C924.944214,688.847717 920.639282,692.376587 918.856323,689.913574 
	C918.856323,667.382690 918.856323,644.323425 918.856323,621.218140 
	C910.382263,621.218140 902.289673,621.218140 894.197083,621.218140 
	C894.032043,621.734253 893.866943,622.250366 893.701904,622.766418 
	C895.674194,623.363831 897.646545,623.961182 899.813843,624.617615 
	C899.813843,646.496948 899.813843,668.574402 899.813843,690.262024 
	C897.904053,691.026794 896.288879,691.673523 894.673767,692.320251 
	C894.862427,692.880188 895.051025,693.440063 895.239685,694.000000 
	C897.040955,694.000000 898.842163,694.000000 901.609253,694.000000 
M572.936096,652.019653 
	C573.960266,652.155334 574.984436,652.291016 576.325012,652.468567 
	C574.308533,654.559692 571.764099,656.020874 571.226135,658.021606 
	C570.333130,661.342529 570.860291,664.899170 574.971497,666.510071 
	C579.143982,668.145081 585.281921,666.926514 586.996338,663.997681 
	C591.513977,656.279785 588.335815,648.860168 579.614685,646.921875 
	C574.313171,645.743591 570.004395,647.602295 566.158081,652.588379 
	C566.029114,650.119202 565.951843,648.640076 565.866211,647.000549 
	C558.463074,647.000549 551.483215,646.873718 544.515564,647.107666 
	C543.124634,647.154419 541.780029,648.578979 540.414062,649.368164 
	C540.626160,649.814697 540.838196,650.261169 541.050293,650.707703 
	C542.616333,650.888245 544.182373,651.068726 545.827759,651.258423 
	C545.827759,664.556396 545.827759,677.650940 545.827759,690.145447 
	C543.895325,691.175049 542.344055,692.001526 540.792786,692.827942 
	C540.962280,693.218628 541.131714,693.609314 541.301208,694.000000 
	C550.437012,694.000000 559.572754,694.000000 568.708557,693.999878 
	C569.373840,693.999878 570.127991,694.198975 570.683716,693.951904 
	C571.521667,693.579468 572.221069,692.895203 572.979370,692.343506 
	C572.275818,691.896301 571.616394,691.182983 570.859558,691.057739 
	C569.312805,690.801575 567.713806,690.861633 566.000000,690.785400 
	C566.000000,682.707520 566.207458,675.062439 565.934570,667.434631 
	C565.715149,661.301697 567.378723,656.197083 572.936096,652.019653 
M469.497314,646.006409 
	C465.126190,646.978394 460.542694,647.408020 456.422668,649.021240 
	C442.534119,654.459534 441.431091,672.067627 446.138794,684.071228 
	C449.875122,693.597961 463.389038,697.802490 475.051544,694.567688 
	C483.521423,692.218323 487.401459,686.494690 488.418091,677.886902 
	C487.002197,678.448547 485.764404,679.295349 484.908234,680.430176 
	C484.055725,681.560059 483.742920,683.090027 482.920074,684.250793 
	C480.212799,688.069824 476.816803,690.710449 471.760071,690.319275 
	C466.444977,689.908203 464.308990,685.930542 464.191681,681.764343 
	C463.941711,672.887390 464.400085,663.955688 465.245911,655.111206 
	C465.422180,653.267883 468.375671,651.463440 470.386963,650.163513 
	C470.973694,649.784302 473.654144,651.099121 473.744415,651.836975 
	C473.904968,653.149048 472.953430,654.689026 472.211792,655.988037 
	C471.704346,656.876770 470.158722,657.488220 470.119446,658.275696 
	C469.922150,662.230713 470.010132,666.153259 474.528503,668.156250 
	C478.593903,669.958557 483.831787,669.243042 486.166687,666.320129 
	C490.980377,660.294189 487.313721,649.721741 479.789337,648.008484 
	C476.664490,647.296936 473.514465,646.696045 469.497314,646.006409 
M632.714600,587.999878 
	C645.458435,587.999878 658.202332,587.999878 670.918213,587.999878 
	C671.146484,577.086548 669.910095,573.145386 663.893799,569.526550 
	C658.971436,566.565735 653.317810,565.275574 647.497314,566.032410 
	C636.103088,567.513916 629.456482,573.819885 630.072937,585.766785 
	C630.112732,586.537170 631.175354,587.254822 632.714600,587.999878 
M523.706421,575.174683 
	C518.582825,566.570618 506.658813,563.304626 494.759308,568.119812 
	C486.869263,571.312683 483.405426,574.578674 485.536804,587.755737 
	C498.596375,587.755737 511.657227,587.755737 525.445557,587.755737 
	C524.938293,583.615173 524.468445,579.779541 523.706421,575.174683 
M704.489868,588.000000 
	C708.583801,588.000000 712.677734,588.000000 716.887085,588.000000 
	C717.083191,580.661011 718.275208,573.904114 710.350769,569.645813 
	C700.507629,564.356506 691.038635,564.710388 682.091675,570.623169 
	C676.004150,574.646118 676.479553,581.396484 677.338257,588.000000 
	C686.257751,588.000000 694.874939,588.000000 704.489868,588.000000 
M583.219971,574.255798 
	C582.671082,578.708008 582.122192,583.160156 581.553894,587.769775 
	C595.562134,587.769775 608.624023,587.769775 621.779663,587.769775 
	C622.399414,581.232849 622.883362,574.677063 616.945190,570.579590 
	C606.933838,563.671631 591.932556,564.153625 583.219971,574.255798 
M535.000000,582.618774 
	C535.000000,584.363647 535.000000,586.108582 535.000000,588.000000 
	C542.111755,588.000000 548.576843,588.000000 555.041870,588.000000 
	C561.624573,588.000000 568.207336,588.000000 574.742310,588.000000 
	C575.476318,576.460876 574.678345,573.303223 569.574036,570.265686 
	C564.357666,567.161499 558.645874,565.177979 552.484375,566.054443 
	C543.566467,567.322998 534.315857,571.622986 535.000000,582.618774 
M659.306763,561.964783 
	C662.489502,558.318542 663.555359,553.992920 662.962280,549.321289 
	C662.223755,543.504883 657.963135,540.999634 652.941101,539.426575 
	C648.465088,538.024475 644.234924,539.106628 641.338135,542.455017 
	C636.791016,547.711060 636.963623,555.796936 640.879456,560.401245 
	C643.889832,563.940857 653.681030,565.928650 659.306763,561.964783 
M493.018250,546.960327 
	C492.754181,549.507751 491.834778,552.200439 492.360901,554.572632 
	C493.496765,559.693848 499.078613,564.787415 505.791962,564.201538 
	C510.950958,563.751343 514.666443,562.610779 516.157043,557.335938 
	C517.522217,552.505066 518.084412,547.859009 514.218567,543.674744 
	C509.074554,538.106934 498.566772,535.976746 493.018250,546.960327 
M545.405212,559.936951 
	C555.199158,568.139526 563.858887,565.390259 567.309814,553.592834 
	C568.667725,548.950623 567.190369,545.569519 564.360779,543.161072 
	C560.730530,540.071106 556.236023,537.905334 550.959778,539.500793 
	C542.734436,541.987915 540.745911,552.973083 545.405212,559.936951 
M590.015625,556.990723 
	C591.552124,558.686462 592.949341,560.540466 594.655945,562.043030 
	C597.642273,564.672424 606.857727,564.858398 609.968567,562.542114 
	C613.688110,559.772583 615.369568,550.885071 613.105103,546.312439 
	C610.316528,540.681213 602.753906,538.111023 598.315735,539.243408 
	C592.622864,540.695923 587.366272,547.567993 590.015625,556.990723 
M685.000916,548.968323 
	C684.256775,555.601074 685.656738,561.148132 692.881348,563.284302 
	C695.014404,563.915039 697.368896,563.857666 699.629272,563.984497 
	C704.464539,564.255920 707.366211,561.320862 708.782715,557.311584 
	C711.013245,550.998352 709.447266,545.830444 705.849060,542.935364 
	C698.207520,536.786865 688.345642,537.616211 685.000916,548.968323 
M529.691406,525.998291 
	C525.533813,525.247498 521.624023,525.745117 519.212341,529.563782 
	C516.367432,534.068481 515.666260,539.081177 518.435425,543.842529 
	C520.808289,547.922546 528.602478,550.252991 532.846191,548.666809 
	C537.460938,546.941956 540.380066,541.582703 539.999817,535.533081 
	C539.716980,531.033203 535.901611,527.208191 529.691406,525.998291 
M678.832947,524.301086 
	C675.405212,524.153503 671.705811,523.116577 668.611694,524.061523 
	C663.649353,525.577026 660.868591,532.457092 662.012573,537.875000 
	C662.817017,541.684998 667.873901,545.775635 671.908875,546.013550 
	C678.074707,546.377014 682.324402,546.063538 684.514771,539.001343 
	C686.484802,532.649780 684.852478,528.165710 678.832947,524.301086 
M587.010071,525.516174 
	C585.361206,524.532898 583.798523,523.345703 582.046936,522.605408 
	C577.239502,520.573608 570.714783,522.483093 568.504272,527.143311 
	C565.994873,532.433594 565.743225,538.321350 570.714233,542.212280 
	C575.202393,545.725220 583.125244,546.112976 586.528625,542.942383 
	C590.798035,538.964966 591.275879,531.365234 587.010071,525.516174 
M622.707825,545.179199 
	C632.788696,548.110413 640.791687,542.036072 638.971191,532.835083 
	C638.000610,527.929321 632.278809,523.207886 627.052307,522.999939 
	C621.008118,522.759583 617.610229,525.243347 616.019836,531.064270 
	C614.241211,537.573853 616.009216,541.757080 622.707825,545.179199 
M683.210999,489.020874 
	C681.287781,489.048706 679.364624,489.076569 677.441406,489.104401 
	C677.781128,490.370117 677.717529,492.310669 678.525208,492.793427 
	C684.298645,496.243988 690.174744,499.550568 696.211365,502.508606 
	C697.335876,503.059631 699.332336,501.831146 700.926392,501.423889 
	C700.114929,500.232971 699.564636,498.626953 698.446533,497.923279 
	C693.691772,494.931091 688.768799,492.206238 683.210999,489.020874 
M517.418091,403.037750 
	C519.686890,404.248291 521.878662,405.662140 524.263855,406.565125 
	C525.166626,406.906921 527.072937,406.401215 527.503845,405.676514 
	C527.930725,404.958527 527.443665,402.855804 526.724243,402.429871 
	C520.660156,398.839539 514.513367,395.369720 508.215576,392.214569 
	C507.300262,391.756012 505.454071,393.155426 504.038635,393.695099 
	C504.749451,394.801910 505.210358,396.297119 506.216675,396.944611 
	C509.591187,399.115662 513.160400,400.984192 517.418091,403.037750 
M699.995117,393.401886 
	C699.022461,390.224426 697.065491,390.419464 694.701782,391.819153 
	C689.876038,394.676758 685.144287,397.721863 680.163086,400.279388 
	C676.038818,402.396942 675.990112,404.315643 679.856628,407.054932 
	C686.522949,402.790161 693.248413,398.487579 699.995117,393.401886 
M684.532776,428.999451 
	C688.891968,427.016754 693.322449,425.170563 697.560852,422.956604 
	C698.635620,422.395203 699.098816,420.663086 699.843018,419.468903 
	C698.391479,419.041046 696.898499,418.169312 695.499084,418.299957 
	C693.825256,418.456177 692.181641,419.366791 690.612366,420.130463 
	C685.865234,422.440521 681.160400,424.837494 676.558655,427.140747 
	C678.916016,432.156891 681.322205,430.695648 684.532776,428.999451 
M520.739197,470.026642 
	C516.188049,472.015656 511.575836,473.881805 507.132538,476.088074 
	C506.138000,476.581879 505.735413,478.267853 505.060272,479.404938 
	C506.178101,479.935791 507.552124,481.179138 508.373016,480.884003 
	C514.539124,478.667145 520.626709,476.218170 526.647095,473.628357 
	C527.367737,473.318420 527.906250,471.699066 527.831421,470.741150 
	C527.782471,470.114563 526.488342,469.134857 525.728210,469.112396 
	C524.343384,469.071442 522.941040,469.624359 520.739197,470.026642 
M662.986572,382.520569 
	C662.050232,383.455048 660.833984,384.242523 660.246582,385.360382 
	C659.472473,386.833649 659.192200,388.566406 658.699646,390.187592 
	C660.536560,389.883148 662.885132,390.189423 664.114380,389.159637 
	C667.776062,386.092224 670.967529,382.468689 674.403015,379.124359 
	C676.578125,377.006897 676.827576,375.031372 673.658142,372.358948 
	C670.267151,375.575958 666.876526,378.792664 662.986572,382.520569 
M514.033691,500.455139 
	C512.687439,501.638519 511.058563,502.628296 510.076691,504.061310 
	C509.146912,505.418274 508.895752,507.240234 508.346130,508.857727 
	C509.877045,508.766205 511.800751,509.235504 512.870789,508.485962 
	C517.479004,505.257904 521.931152,501.782898 526.210938,498.129395 
	C527.137390,497.338501 527.116455,495.437805 527.531921,494.048279 
	C526.111023,494.020447 524.386230,493.460510 523.326904,494.065674 
	C520.288330,495.801544 517.519226,498.009247 514.033691,500.455139 
M699.994202,472.325775 
	C699.354919,471.731873 698.812744,470.832642 698.060669,470.593384 
	C693.021912,468.990417 687.973450,467.383667 682.841125,466.136566 
	C681.760376,465.873932 680.318298,467.098206 679.042725,467.637360 
	C679.897705,468.805603 680.523132,470.635437 681.648071,471.025879 
	C686.168213,472.594574 690.800110,473.932587 695.487976,474.868652 
	C696.814880,475.133606 698.472229,473.743683 699.994202,472.325775 
M525.467285,425.937103 
	C519.387573,424.778595 513.678589,420.407471 506.152679,423.260956 
	C507.445953,424.743744 507.940857,425.863281 508.712769,426.107544 
	C514.181580,427.838165 519.690430,429.453125 525.236633,430.914673 
	C525.906494,431.091248 527.615784,430.040314 527.576111,429.711365 
	C527.423706,428.450165 526.754578,427.251404 525.467285,425.937103 
M539.201782,372.001465 
	C535.884094,371.789124 536.569763,374.363281 537.331238,375.599609 
	C540.482178,380.715363 543.994690,385.608398 547.374390,390.583252 
	C547.903625,390.454437 548.432800,390.325623 548.961975,390.196777 
	C549.345581,388.936646 550.455872,387.214142 549.995667,386.490875 
	C546.851257,381.548920 543.377014,376.816864 539.201782,372.001465 
M679.595642,448.943268 
	C680.828613,450.294403 682.100403,452.825745 683.287659,452.786743 
	C687.761841,452.639679 692.233826,451.780701 696.644836,450.884125 
	C697.561218,450.697845 698.615906,449.298218 698.833496,448.290741 
	C698.960144,447.704285 697.476196,446.064941 696.842896,446.129791 
	C691.255981,446.701691 685.697388,447.549988 679.595642,448.943268 
M517.462952,452.999817 
	C519.867310,452.662354 522.344116,452.570312 524.647217,451.890045 
	C525.910583,451.516876 526.880859,450.151611 527.983337,449.233704 
	C526.659424,448.317780 525.433960,446.894379 523.986816,446.613586 
	C522.151672,446.257507 520.095947,446.639343 518.207642,447.042114 
	C514.670227,447.796570 511.184753,448.794891 507.296448,449.789276 
	C510.111145,455.163605 513.757263,452.316254 517.462952,452.999817 
M602.852600,373.709961 
	C602.895691,378.470123 602.813721,383.238251 603.115173,387.982025 
	C603.161011,388.703552 605.068298,389.915710 605.961182,389.792145 
	C606.751282,389.682739 607.845398,388.059448 607.906006,387.050446 
	C608.134216,383.254761 608.288940,379.404877 607.877625,375.640137 
	C607.648865,373.546936 607.092468,370.073730 602.852600,373.709961 
M639.000488,385.496002 
	C640.658691,382.834167 642.316895,380.172302 644.091553,377.323486 
	C642.638916,376.479126 641.480713,375.805939 640.075378,374.989075 
	C637.494751,378.422577 634.851318,381.504395 632.790039,384.935913 
	C632.134338,386.027405 633.027344,388.049133 633.211609,389.645233 
	C634.528687,388.930603 635.880554,388.271271 637.146301,387.475128 
	C637.679016,387.139984 638.030090,386.516052 639.000488,385.496002 
M574.958130,380.554626 
	C576.089111,382.648438 577.027771,384.887970 578.448181,386.762482 
	C578.995911,387.485321 580.963806,387.926697 581.689697,387.495300 
	C582.407959,387.068390 582.841553,385.255463 582.579224,384.268768 
	C581.973694,381.991302 580.958130,379.804840 579.945740,377.658478 
	C578.900269,375.442108 577.702515,372.769745 574.603760,374.215668 
	C571.316284,375.749603 573.736389,378.004028 574.958130,380.554626 
z"/>
<path fill="#FFFFFF" opacity="1.000000" stroke="none" 
	d="
M603.000000,499.000000 
	C580.857788,499.000000 559.215515,499.000000 537.286987,499.000000 
	C537.286987,465.046265 537.286987,431.309998 537.286987,397.286469 
	C580.954468,397.286469 624.689880,397.286469 668.712952,397.286469 
	C668.712952,430.953705 668.712952,464.689972 668.712952,499.000000 
	C647.023010,499.000000 625.261475,499.000000 603.000000,499.000000 
M658.999756,409.677734 
	C659.452271,405.714874 656.448853,407.047150 654.666016,407.044128 
	C619.668213,406.984863 584.670410,406.999451 549.672546,407.005280 
	C548.887695,407.005402 548.102844,407.079041 547.230591,407.122772 
	C547.230591,434.527008 547.230591,461.597687 547.230591,488.767395 
	C584.531799,488.767395 621.601990,488.767395 659.000000,488.767395 
	C659.000000,462.574738 659.000000,436.613251 658.999756,409.677734 
z"/>
<path fill="#FFFFFF" opacity="1.000000" stroke="none" 
	d="
M700.634216,631.236938 
	C707.679993,638.331604 707.409424,646.693970 704.539734,654.691956 
	C701.770569,662.409485 694.665710,665.150208 686.890259,666.003418 
	C682.825195,666.449402 678.763916,666.929749 674.332031,667.436768 
	C674.332031,674.823608 674.332031,682.572876 674.332031,691.000122 
	C677.022522,691.000122 679.949768,690.883545 682.859009,691.061462 
	C683.921021,691.126404 684.940308,691.891418 685.979065,692.337036 
	C684.883667,692.891357 683.790894,693.922913 682.692444,693.928894 
	C664.360107,694.028564 646.027100,693.999939 627.694214,694.000000 
	C624.874146,694.000000 622.054138,694.000000 619.234070,694.000000 
	C619.061829,693.666565 618.889587,693.333069 618.717285,692.999634 
	C619.960388,692.108459 621.203491,691.217346 622.754333,690.105591 
	C624.107849,675.361938 623.326233,656.677429 620.367371,651.798828 
	C618.367920,654.392395 615.602478,656.399292 615.193481,658.806580 
	C613.968079,666.019226 613.580444,673.382141 613.039062,680.699219 
	C612.806213,683.845947 613.000000,687.024292 613.000000,690.165894 
	C614.828308,690.899292 616.590271,691.606018 618.352234,692.312805 
	C618.174622,692.790344 617.997070,693.267883 617.819519,693.745483 
	C617.179382,693.829773 616.539368,693.986389 615.899109,693.987549 
	C607.085938,694.003662 598.272766,693.998413 589.459595,693.998413 
	C589.229492,693.522278 588.999329,693.046143 588.769165,692.569946 
	C590.263000,691.843384 591.756836,691.116821 593.746948,690.148804 
	C593.746948,677.758606 593.746948,664.658997 593.746948,652.030457 
	C591.809082,650.879395 590.067871,649.845093 588.326599,648.810730 
	C588.578003,648.296570 588.829468,647.782349 589.080933,647.268188 
	C597.001282,647.268188 604.921631,647.268188 612.962463,647.268188 
	C612.962463,649.065491 612.962463,650.720459 612.962463,651.473877 
	C616.332397,650.038330 619.792542,647.737549 623.504639,647.210266 
	C627.399231,646.657043 631.697876,647.244141 635.523926,648.353516 
	C640.054504,649.667175 641.747314,653.746582 641.980164,658.247864 
	C642.534790,668.964722 642.986145,679.686890 643.493103,690.709778 
	C646.608093,690.709778 650.015503,690.709778 654.000000,690.709778 
	C654.000000,680.533264 654.000000,670.265686 654.000000,659.998047 
	C654.000000,649.851807 654.000000,639.705566 654.000000,629.925476 
	C652.403259,627.544678 647.987427,631.266541 647.981018,625.083923 
	C663.715454,626.067688 679.293030,626.951050 694.848022,628.132080 
	C696.732300,628.275146 698.494568,630.024231 700.634216,631.236938 
M675.228638,629.014160 
	C674.862000,629.254272 674.175720,629.492920 674.174561,629.734680 
	C674.121826,641.103027 674.128723,652.471680 674.128723,663.975098 
	C682.536194,661.355164 684.454285,659.212891 684.963806,651.703857 
	C685.177124,648.560303 685.013550,645.390198 684.997314,642.232300 
	C684.955078,634.048523 683.403748,631.754578 675.228638,629.014160 
z"/>
<path fill="#FFFFFF" opacity="1.000000" stroke="none" 
	d="
M804.063477,649.948914 
	C803.250610,645.608521 806.668457,647.432617 808.830994,646.803772 
	C808.830994,643.154907 808.830994,639.380798 808.830994,635.253479 
	C815.546692,633.654114 822.006775,632.115601 829.002441,630.449524 
	C829.002441,636.398438 829.002441,641.498291 829.002441,646.824463 
	C832.974060,646.824463 836.591248,646.824463 840.601196,646.824463 
	C840.745605,648.195251 840.869385,649.370544 841.036743,650.959351 
	C836.952332,650.959351 833.195740,650.959351 829.003052,650.959351 
	C829.003052,662.608826 828.889893,673.885071 829.129639,685.153931 
	C829.164124,686.774780 830.898621,688.359497 831.846436,689.960938 
	C833.594604,688.805664 836.078430,688.050598 836.962585,686.425293 
	C840.647278,679.652100 844.913025,673.566650 852.868469,671.722839 
	C857.599609,670.626343 862.533997,670.407104 868.312744,669.674927 
	C867.869995,663.888123 867.553406,657.892151 866.819153,651.947754 
	C866.694153,650.935425 864.724976,649.372437 863.706543,649.445251 
	C862.425354,649.536926 861.245850,651.049927 860.022522,651.949646 
	C860.801941,652.651672 861.548401,653.395020 862.366516,654.048523 
	C865.552917,656.593872 863.861511,664.476746 859.621643,666.774719 
	C855.706543,668.896667 848.463928,667.342773 846.475952,663.954285 
	C844.111816,659.924561 846.347656,652.045593 850.618591,649.862183 
	C860.257385,644.934692 870.249756,645.392456 880.124268,648.745483 
	C885.442139,650.551270 886.831543,655.506165 886.952515,660.584900 
	C887.134888,668.241455 886.886108,675.908569 887.082214,683.564453 
	C887.129578,685.413818 888.201904,687.236877 888.802795,689.071960 
	C889.242676,689.032898 889.682556,688.993835 890.122375,688.954773 
	C891.150208,685.507874 892.178040,682.060913 893.205872,678.613953 
	C893.985046,678.841858 894.764160,679.069763 895.543274,679.297668 
	C894.716125,683.075684 894.230042,686.978577 892.913330,690.577454 
	C892.284485,692.296143 890.121521,694.584778 888.579407,694.642456 
	C881.883545,694.893311 874.660034,696.990173 869.177673,690.938232 
	C860.890564,698.480713 842.931885,696.606628 842.504639,683.378784 
	C841.778931,689.155334 838.523560,693.843506 833.235046,694.619141 
	C826.644470,695.585632 819.375061,696.607239 813.364502,691.813049 
	C808.449585,687.892761 809.562317,681.931335 809.174316,676.829468 
	C808.532959,668.396729 809.000000,659.879700 809.000000,651.494385 
	C807.407043,651.003906 806.062866,650.590027 804.350464,650.045410 
	C803.982239,649.914673 804.063477,649.948914 804.063477,649.948914 
M868.000000,680.383667 
	C868.000000,678.306213 868.000000,676.228760 868.000000,673.935059 
	C862.662537,676.107239 861.087708,684.029480 865.212830,691.195068 
	C866.356140,687.126465 867.178101,684.201538 868.000000,680.383667 
z"/>
<path fill="#FFFFFF" opacity="1.000000" stroke="none" 
	d="
M410.898560,647.753174 
	C410.985016,649.289856 410.985016,650.403198 410.985016,652.593079 
	C416.219849,645.630005 423.105133,645.465820 429.313995,647.338257 
	C433.178375,648.503723 437.499512,652.296570 439.108643,655.999634 
	C443.441254,665.969971 443.500183,676.463684 438.767273,686.622803 
	C436.611206,691.250732 432.818451,694.215576 427.998810,694.807800 
	C422.890320,695.435608 417.635193,694.870056 412.224579,694.823853 
	C412.224579,700.128296 412.224579,706.810120 412.224579,713.891602 
	C416.017181,713.891602 419.777130,713.891602 423.537109,713.891602 
	C423.767517,714.242004 423.997925,714.592346 424.228333,714.942749 
	C423.472107,715.627808 422.722321,716.901367 421.958710,716.909668 
	C410.332397,717.036560 398.704224,716.997925 387.076508,716.997925 
	C386.922577,716.394409 386.768616,715.790894 386.614655,715.187378 
	C388.310730,714.587097 390.006836,713.986816 391.866821,713.328552 
	C391.866821,692.862183 391.866821,672.232605 391.866821,652.081421 
	C389.924103,650.878479 388.175751,649.795898 386.427429,648.713318 
	C386.656067,648.252136 386.884674,647.791016 387.113312,647.329834 
	C395.012909,647.329834 402.912476,647.329834 410.898560,647.753174 
M413.300415,688.829285 
	C416.833893,691.835144 420.448334,690.644836 420.877258,685.777710 
	C421.612183,677.437439 421.936981,669.033325 421.844666,660.662537 
	C421.811432,657.651428 420.078094,654.659058 418.990662,651.250610 
	C413.524048,654.794556 411.754761,658.772217 411.951385,663.951233 
	C412.165497,669.591125 411.903351,675.247925 412.045685,680.892334 
	C412.106049,683.286377 412.667908,685.667786 413.300415,688.829285 
z"/>
<path fill="#FFFFFF" opacity="1.000000" stroke="none" 
	d="
M312.640686,666.984619 
	C309.681732,666.998047 307.182648,666.998047 304.341858,666.998047 
	C304.341858,674.800537 304.341858,682.549683 304.341858,691.001709 
	C307.331757,691.001709 310.583923,690.924011 313.827087,691.060974 
	C314.559906,691.091980 315.261200,691.869690 315.976990,692.303650 
	C315.226807,692.868591 314.480896,693.919312 313.725800,693.925903 
	C301.923492,694.029663 290.119995,693.998596 278.316742,693.998596 
	C278.127228,693.453430 277.937714,692.908264 277.748199,692.363098 
	C279.658508,691.705139 281.568787,691.047119 283.892303,690.246826 
	C283.914795,689.737305 283.994049,688.773010 283.994415,687.808655 
	C284.001678,668.342651 283.999878,648.876587 283.999878,629.683472 
	C281.651733,628.961914 279.693420,628.360107 277.735077,627.758362 
	C277.918243,626.865356 278.101379,625.972351 278.284515,625.079346 
	C293.366058,626.054199 308.576294,626.144470 323.484039,628.313538 
	C333.495483,629.770203 338.520966,640.673279 335.765869,650.612915 
	C332.567841,662.150879 325.893158,664.674988 316.839752,666.018921 
	C315.574127,666.206726 314.346039,666.647461 312.640686,666.984619 
M311.330505,631.035645 
	C309.091034,630.285950 306.851562,629.536255 304.246704,628.664246 
	C304.246704,640.690918 304.246704,652.228455 304.246704,664.897156 
	C307.417633,662.989746 311.601471,661.967957 312.428772,659.714050 
	C315.831696,650.443298 316.544373,640.839294 311.330505,631.035645 
z"/>
<path fill="#FFFFFF" opacity="1.000000" stroke="none" 
	d="
M493.157501,685.480835 
	C490.175262,678.252747 489.149231,671.331299 490.907501,663.872803 
	C493.122955,654.474854 498.811188,648.558838 508.031860,647.246277 
	C514.060425,646.388123 520.454895,647.256653 526.574402,648.130005 
	C532.160278,648.927307 536.033447,652.813110 537.938049,658.007019 
	C541.547546,667.849915 541.377441,677.652039 535.971985,686.917847 
	C533.563660,691.046143 529.860168,693.304077 524.988525,694.095886 
	C513.143799,696.021301 501.772095,696.648193 493.157501,685.480835 
M520.000000,659.749390 
	C519.809753,658.140381 520.065430,656.275085 519.323120,654.983276 
	C518.248108,653.112427 516.451172,651.656372 514.962097,650.023376 
	C513.641052,651.961548 511.408417,653.792969 511.166748,655.857483 
	C510.384338,662.540588 510.151245,669.307068 510.069824,676.045837 
	C510.022827,679.938354 510.324860,683.917969 511.175476,687.699707 
	C511.542847,689.333069 513.510681,691.323059 515.100891,691.708191 
	C516.128296,691.956970 518.068420,689.781372 519.074585,688.328674 
	C519.820618,687.251343 519.948486,685.591492 519.962463,684.187256 
	C520.040588,676.358032 520.000000,668.527588 520.000000,659.749390 
z"/>
<path fill="#FFFFFF" opacity="1.000000" stroke="none" 
	d="
M746.579956,691.787964 
	C734.979065,696.396118 723.615662,697.885010 713.527100,689.826599 
	C710.150330,687.129395 707.528931,682.223145 706.649536,677.901917 
	C704.105774,665.401855 707.063599,651.360535 721.744934,647.868164 
	C731.599182,645.524048 741.664551,644.876953 749.957397,652.521301 
	C757.238953,659.233459 756.422607,668.160095 755.591675,676.794373 
	C755.004883,682.891479 752.263184,688.099731 746.579956,691.787964 
M735.999939,683.133545 
	C735.668030,673.599854 735.490173,664.055908 734.852173,654.542725 
	C734.746094,652.961304 732.634583,651.514404 731.449768,650.005310 
	C729.969910,651.413513 727.289856,652.751770 727.203064,654.241150 
	C726.591125,664.738037 726.239563,675.272583 726.493286,685.778503 
	C726.544250,687.888000 729.251160,691.272705 731.248230,691.708069 
	C735.029419,692.532349 734.604675,688.314148 735.562439,685.941406 
	C735.801514,685.349182 735.858276,684.683289 735.999939,683.133545 
z"/>
<path fill="#FFFFFF" opacity="1.000000" stroke="none" 
	d="
M336.000000,666.343994 
	C337.433807,654.997131 345.628052,646.784424 357.250916,647.085388 
	C363.034760,647.235168 368.994232,647.568359 374.515686,649.106079 
	C381.298126,650.995056 383.683228,656.903015 385.115936,663.489258 
	C386.519073,669.939636 385.954803,676.069946 383.946442,682.134766 
	C381.727844,688.834412 376.742096,693.030640 370.030792,694.334351 
	C362.131317,695.868835 353.915405,696.157410 346.445160,692.658813 
	C339.615234,689.460144 336.713135,683.088440 336.044983,675.788452 
	C335.772949,672.816162 336.000000,669.798096 336.000000,666.343994 
M356.000000,677.443604 
	C356.302979,680.828247 356.190033,684.327332 357.076721,687.551453 
	C357.551514,689.277832 359.747711,690.530884 361.167114,691.997498 
	C362.444519,690.384705 364.778687,688.803650 364.828217,687.153931 
	C365.155914,676.240906 365.136871,665.308960 364.822235,654.394958 
	C364.779053,652.897400 362.471710,651.465088 361.212616,650.002563 
	C359.802002,651.289734 357.297852,652.472534 357.163391,653.881531 
	C356.448242,661.376526 356.326904,668.928223 356.000000,677.443604 
z"/>
<path fill="#FFFFFF" opacity="1.000000" stroke="none" 
	d="
M901.126343,694.000000 
	C898.842163,694.000000 897.040955,694.000000 895.239685,694.000000 
	C895.051025,693.440063 894.862427,692.880188 894.673767,692.320251 
	C896.288879,691.673523 897.904053,691.026794 899.813843,690.262024 
	C899.813843,668.574402 899.813843,646.496948 899.813843,624.617615 
	C897.646545,623.961182 895.674194,623.363831 893.701904,622.766418 
	C893.866943,622.250366 894.032043,621.734253 894.197083,621.218140 
	C902.289673,621.218140 910.382263,621.218140 918.856323,621.218140 
	C918.856323,644.323425 918.856323,667.382690 918.856323,689.913574 
	C920.639282,692.376587 924.944214,688.847717 925.080200,694.000000 
	C917.162170,694.000000 909.385681,694.000000 901.126343,694.000000 
z"/>
<path fill="#FFFFFF" opacity="1.000000" stroke="none" 
	d="
M803.970825,649.872070 
	C803.770996,654.267273 804.170471,658.836121 803.218506,663.103516 
	C802.372681,666.895203 796.125671,668.501892 791.342773,666.754211 
	C787.451477,665.332397 786.190918,661.956909 787.199402,658.471252 
	C787.827332,656.300964 790.300903,654.664612 792.134766,652.573608 
	C787.794617,650.677429 786.108887,654.235596 784.314941,656.518066 
	C783.008911,658.179688 782.157837,660.639771 782.104370,662.768921 
	C781.871399,672.056396 782.004272,681.353088 782.004272,690.318359 
	C784.308594,692.187073 788.060120,689.088928 789.389038,693.617188 
	C778.417542,693.617188 767.883362,693.617188 757.349182,693.617188 
	C757.170837,693.353577 756.992554,693.090027 756.814270,692.826416 
	C758.346863,691.999023 759.879517,691.171631 761.821289,690.123352 
	C761.821289,677.656921 761.821289,664.540161 761.821289,651.077332 
	C760.287354,651.077332 758.870728,651.077332 757.454102,651.077332 
	C757.202515,650.586548 756.950928,650.095764 756.699341,649.605042 
	C757.992188,648.736816 759.259705,647.165588 760.582031,647.118042 
	C767.559753,646.867188 774.551270,647.000427 781.836182,647.000427 
	C781.925659,648.638428 782.003723,650.068848 782.111511,652.042236 
	C788.975525,645.151550 796.092957,644.409363 803.782166,650.276245 
	C804.063477,649.948914 803.982239,649.914673 803.970825,649.872070 
z"/>
<path fill="#FFFFFF" opacity="1.000000" stroke="none" 
	d="
M572.567505,652.143921 
	C567.378723,656.197083 565.715149,661.301697 565.934570,667.434631 
	C566.207458,675.062439 566.000000,682.707520 566.000000,690.785400 
	C567.713806,690.861633 569.312805,690.801575 570.859558,691.057739 
	C571.616394,691.182983 572.275818,691.896301 572.979370,692.343506 
	C572.221069,692.895203 571.521667,693.579468 570.683716,693.951904 
	C570.127991,694.198975 569.373840,693.999878 568.708557,693.999878 
	C559.572754,694.000000 550.437012,694.000000 541.301208,694.000000 
	C541.131714,693.609314 540.962280,693.218628 540.792786,692.827942 
	C542.344055,692.001526 543.895325,691.175049 545.827759,690.145447 
	C545.827759,677.650940 545.827759,664.556396 545.827759,651.258423 
	C544.182373,651.068726 542.616333,650.888245 541.050293,650.707703 
	C540.838196,650.261169 540.626160,649.814697 540.414062,649.368164 
	C541.780029,648.578979 543.124634,647.154419 544.515564,647.107666 
	C551.483215,646.873718 558.463074,647.000549 565.866211,647.000549 
	C565.951843,648.640076 566.029114,650.119202 566.158081,652.588379 
	C570.004395,647.602295 574.313171,645.743591 579.614685,646.921875 
	C588.335815,648.860168 591.513977,656.279785 586.996338,663.997681 
	C585.281921,666.926514 579.143982,668.145081 574.971497,666.510071 
	C570.860291,664.899170 570.333130,661.342529 571.226135,658.021606 
	C571.764099,656.020874 574.308533,654.559692 576.325012,652.468567 
	C574.984436,652.291016 573.960266,652.155334 572.567505,652.143921 
z"/>
<path fill="#FFFFFF" opacity="1.000000" stroke="none" 
	d="
M469.936615,646.025635 
	C473.514465,646.696045 476.664490,647.296936 479.789337,648.008484 
	C487.313721,649.721741 490.980377,660.294189 486.166687,666.320129 
	C483.831787,669.243042 478.593903,669.958557 474.528503,668.156250 
	C470.010132,666.153259 469.922150,662.230713 470.119446,658.275696 
	C470.158722,657.488220 471.704346,656.876770 472.211792,655.988037 
	C472.953430,654.689026 473.904968,653.149048 473.744415,651.836975 
	C473.654144,651.099121 470.973694,649.784302 470.386963,650.163513 
	C468.375671,651.463440 465.422180,653.267883 465.245911,655.111206 
	C464.400085,663.955688 463.941711,672.887390 464.191681,681.764343 
	C464.308990,685.930542 466.444977,689.908203 471.760071,690.319275 
	C476.816803,690.710449 480.212799,688.069824 482.920074,684.250793 
	C483.742920,683.090027 484.055725,681.560059 484.908234,680.430176 
	C485.764404,679.295349 487.002197,678.448547 488.418091,677.886902 
	C487.401459,686.494690 483.521423,692.218323 475.051544,694.567688 
	C463.389038,697.802490 449.875122,693.597961 446.138794,684.071228 
	C441.431091,672.067627 442.534119,654.459534 456.422668,649.021240 
	C460.542694,647.408020 465.126190,646.978394 469.936615,646.025635 
z"/>
<path fill="#FFFFFF" opacity="1.000000" stroke="none" 
	d="
M632.238403,587.998413 
	C631.175354,587.254822 630.112732,586.537170 630.072937,585.766785 
	C629.456482,573.819885 636.103088,567.513916 647.497314,566.032410 
	C653.317810,565.275574 658.971436,566.565735 663.893799,569.526550 
	C669.910095,573.145386 671.146484,577.086548 670.918213,587.999878 
	C658.202332,587.999878 645.458435,587.999878 632.238403,587.998413 
z"/>
<path fill="#FFFFFF" opacity="1.000000" stroke="none" 
	d="
M523.852478,575.559265 
	C524.468445,579.779541 524.938293,583.615173 525.445557,587.755737 
	C511.657227,587.755737 498.596375,587.755737 485.536804,587.755737 
	C483.405426,574.578674 486.869263,571.312683 494.759308,568.119812 
	C506.658813,563.304626 518.582825,566.570618 523.852478,575.559265 
z"/>
<path fill="#FFFFFF" opacity="1.000000" stroke="none" 
	d="
M703.990967,588.000000 
	C694.874939,588.000000 686.257751,588.000000 677.338257,588.000000 
	C676.479553,581.396484 676.004150,574.646118 682.091675,570.623169 
	C691.038635,564.710388 700.507629,564.356506 710.350769,569.645813 
	C718.275208,573.904114 717.083191,580.661011 716.887085,588.000000 
	C712.677734,588.000000 708.583801,588.000000 703.990967,588.000000 
z"/>
<path fill="#FFFFFF" opacity="1.000000" stroke="none" 
	d="
M583.523926,573.996094 
	C591.932556,564.153625 606.933838,563.671631 616.945190,570.579590 
	C622.883362,574.677063 622.399414,581.232849 621.779663,587.769775 
	C608.624023,587.769775 595.562134,587.769775 581.553894,587.769775 
	C582.122192,583.160156 582.671082,578.708008 583.523926,573.996094 
z"/>
<path fill="#FFFFFF" opacity="1.000000" stroke="none" 
	d="
M535.000000,582.162781 
	C534.315857,571.622986 543.566467,567.322998 552.484375,566.054443 
	C558.645874,565.177979 564.357666,567.161499 569.574036,570.265686 
	C574.678345,573.303223 575.476318,576.460876 574.742310,588.000000 
	C568.207336,588.000000 561.624573,588.000000 555.041870,588.000000 
	C548.576843,588.000000 542.111755,588.000000 535.000000,588.000000 
	C535.000000,586.108582 535.000000,584.363647 535.000000,582.162781 
z"/>
<path fill="#FFFFFF" opacity="1.000000" stroke="none" 
	d="
M658.898071,562.008179 
	C653.681030,565.928650 643.889832,563.940857 640.879456,560.401245 
	C636.963623,555.796936 636.791016,547.711060 641.338135,542.455017 
	C644.234924,539.106628 648.465088,538.024475 652.941101,539.426575 
	C657.963135,540.999634 662.223755,543.504883 662.962280,549.321289 
	C663.555359,553.992920 662.489502,558.318542 658.898071,562.008179 
z"/>
<path fill="#FFFFFF" opacity="1.000000" stroke="none" 
	d="
M493.144775,546.578125 
	C498.566772,535.976746 509.074554,538.106934 514.218567,543.674744 
	C518.084412,547.859009 517.522217,552.505066 516.157043,557.335938 
	C514.666443,562.610779 510.950958,563.751343 505.791962,564.201538 
	C499.078613,564.787415 493.496765,559.693848 492.360901,554.572632 
	C491.834778,552.200439 492.754181,549.507751 493.144775,546.578125 
z"/>
<path fill="#FFFFFF" opacity="1.000000" stroke="none" 
	d="
M545.145142,559.634521 
	C540.745911,552.973083 542.734436,541.987915 550.959778,539.500793 
	C556.236023,537.905334 560.730530,540.071106 564.360779,543.161072 
	C567.190369,545.569519 568.667725,548.950623 567.309814,553.592834 
	C563.858887,565.390259 555.199158,568.139526 545.145142,559.634521 
z"/>
<path fill="#FFFFFF" opacity="1.000000" stroke="none" 
	d="
M590.008179,556.588135 
	C587.366272,547.567993 592.622864,540.695923 598.315735,539.243408 
	C602.753906,538.111023 610.316528,540.681213 613.105103,546.312439 
	C615.369568,550.885071 613.688110,559.772583 609.968567,562.542114 
	C606.857727,564.858398 597.642273,564.672424 594.655945,562.043030 
	C592.949341,560.540466 591.552124,558.686462 590.008179,556.588135 
z"/>
<path fill="#FFFFFF" opacity="1.000000" stroke="none" 
	d="
M685.006958,548.541138 
	C688.345642,537.616211 698.207520,536.786865 705.849060,542.935364 
	C709.447266,545.830444 711.013245,550.998352 708.782715,557.311584 
	C707.366211,561.320862 704.464539,564.255920 699.629272,563.984497 
	C697.368896,563.857666 695.014404,563.915039 692.881348,563.284302 
	C685.656738,561.148132 684.256775,555.601074 685.006958,548.541138 
z"/>
<path fill="#FFFFFF" opacity="1.000000" stroke="none" 
	d="
M530.091125,525.999146 
	C535.901611,527.208191 539.716980,531.033203 539.999817,535.533081 
	C540.380066,541.582703 537.460938,546.941956 532.846191,548.666809 
	C528.602478,550.252991 520.808289,547.922546 518.435425,543.842529 
	C515.666260,539.081177 516.367432,534.068481 519.212341,529.563782 
	C521.624023,525.745117 525.533813,525.247498 530.091125,525.999146 
z"/>
<path fill="#FFFFFF" opacity="1.000000" stroke="none" 
	d="
M679.107788,524.593933 
	C684.852478,528.165710 686.484802,532.649780 684.514771,539.001343 
	C682.324402,546.063538 678.074707,546.377014 671.908875,546.013550 
	C667.873901,545.775635 662.817017,541.684998 662.012573,537.875000 
	C660.868591,532.457092 663.649353,525.577026 668.611694,524.061523 
	C671.705811,523.116577 675.405212,524.153503 679.107788,524.593933 
z"/>
<path fill="#FFFFFF" opacity="1.000000" stroke="none" 
	d="
M587.300110,525.787842 
	C591.275879,531.365234 590.798035,538.964966 586.528625,542.942383 
	C583.125244,546.112976 575.202393,545.725220 570.714233,542.212280 
	C565.743225,538.321350 565.994873,532.433594 568.504272,527.143311 
	C570.714783,522.483093 577.239502,520.573608 582.046936,522.605408 
	C583.798523,523.345703 585.361206,524.532898 587.300110,525.787842 
z"/>
<path fill="#FFFFFF" opacity="1.000000" stroke="none" 
	d="
M622.307373,545.086426 
	C616.009216,541.757080 614.241211,537.573853 616.019836,531.064270 
	C617.610229,525.243347 621.008118,522.759583 627.052307,522.999939 
	C632.278809,523.207886 638.000610,527.929321 638.971191,532.835083 
	C640.791687,542.036072 632.788696,548.110413 622.307373,545.086426 
z"/>
<path fill="#FFFFFF" opacity="1.000000" stroke="none" 
	d="
M683.559082,489.202332 
	C688.768799,492.206238 693.691772,494.931091 698.446533,497.923279 
	C699.564636,498.626953 700.114929,500.232971 700.926392,501.423889 
	C699.332336,501.831146 697.335876,503.059631 696.211365,502.508606 
	C690.174744,499.550568 684.298645,496.243988 678.525208,492.793427 
	C677.717529,492.310669 677.781128,490.370117 677.441406,489.104401 
	C679.364624,489.076569 681.287781,489.048706 683.559082,489.202332 
z"/>
<path fill="#FFFFFF" opacity="1.000000" stroke="none" 
	d="
M517.036560,403.003143 
	C513.160400,400.984192 509.591187,399.115662 506.216675,396.944611 
	C505.210358,396.297119 504.749451,394.801910 504.038635,393.695099 
	C505.454071,393.155426 507.300262,391.756012 508.215576,392.214569 
	C514.513367,395.369720 520.660156,398.839539 526.724243,402.429871 
	C527.443665,402.855804 527.930725,404.958527 527.503845,405.676514 
	C527.072937,406.401215 525.166626,406.906921 524.263855,406.565125 
	C521.878662,405.662140 519.686890,404.248291 517.036560,403.003143 
z"/>
<path fill="#FFFFFF" opacity="1.000000" stroke="none" 
	d="
M699.984497,393.793457 
	C693.248413,398.487579 686.522949,402.790161 679.856628,407.054932 
	C675.990112,404.315643 676.038818,402.396942 680.163086,400.279388 
	C685.144287,397.721863 689.876038,394.676758 694.701782,391.819153 
	C697.065491,390.419464 699.022461,390.224426 699.984497,393.793457 
z"/>
<path fill="#FFFFFF" opacity="1.000000" stroke="none" 
	d="
M684.140991,429.014587 
	C681.322205,430.695648 678.916016,432.156891 676.558655,427.140747 
	C681.160400,424.837494 685.865234,422.440521 690.612366,420.130463 
	C692.181641,419.366791 693.825256,418.456177 695.499084,418.299957 
	C696.898499,418.169312 698.391479,419.041046 699.843018,419.468933 
	C699.098816,420.663086 698.635620,422.395203 697.560852,422.956604 
	C693.322449,425.170563 688.891968,427.016754 684.140991,429.014587 
z"/>
<path fill="#FFFFFF" opacity="1.000000" stroke="none" 
	d="
M521.142578,469.978088 
	C522.941040,469.624359 524.343384,469.071442 525.728210,469.112396 
	C526.488342,469.134857 527.782471,470.114563 527.831421,470.741150 
	C527.906250,471.699066 527.367737,473.318420 526.647095,473.628357 
	C520.626709,476.218170 514.539124,478.667145 508.373016,480.884003 
	C507.552124,481.179138 506.178101,479.935791 505.060272,479.404938 
	C505.735413,478.267853 506.138000,476.581879 507.132538,476.088074 
	C511.575836,473.881805 516.188049,472.015656 521.142578,469.978088 
z"/>
<path fill="#FFFFFF" opacity="1.000000" stroke="none" 
	d="
M663.236206,382.264954 
	C666.876526,378.792664 670.267151,375.575958 673.658142,372.358948 
	C676.827576,375.031372 676.578125,377.006897 674.403015,379.124359 
	C670.967529,382.468689 667.776062,386.092224 664.114380,389.159637 
	C662.885132,390.189423 660.536560,389.883148 658.699646,390.187592 
	C659.192200,388.566406 659.472473,386.833649 660.246582,385.360382 
	C660.833984,384.242523 662.050232,383.455048 663.236206,382.264954 
z"/>
<path fill="#FFFFFF" opacity="1.000000" stroke="none" 
	d="
M514.338928,500.243317 
	C517.519226,498.009247 520.288330,495.801544 523.326904,494.065674 
	C524.386230,493.460510 526.111023,494.020447 527.531921,494.048279 
	C527.116455,495.437805 527.137390,497.338501 526.210938,498.129395 
	C521.931152,501.782898 517.479004,505.257904 512.870789,508.485962 
	C511.800751,509.235504 509.877045,508.766205 508.346130,508.857727 
	C508.895752,507.240234 509.146912,505.418274 510.076691,504.061310 
	C511.058563,502.628296 512.687439,501.638519 514.338928,500.243317 
z"/>
<path fill="#FFFFFF" opacity="1.000000" stroke="none" 
	d="
M699.986145,472.719238 
	C698.472229,473.743683 696.814880,475.133606 695.487976,474.868652 
	C690.800110,473.932587 686.168213,472.594574 681.648071,471.025879 
	C680.523132,470.635437 679.897705,468.805603 679.042725,467.637360 
	C680.318298,467.098206 681.760376,465.873932 682.841125,466.136566 
	C687.973450,467.383667 693.021912,468.990417 698.060669,470.593384 
	C698.812744,470.832642 699.354919,471.731873 699.986145,472.719238 
z"/>
<path fill="#FFFFFF" opacity="1.000000" stroke="none" 
	d="
M525.872803,425.983215 
	C526.754578,427.251404 527.423706,428.450165 527.576111,429.711365 
	C527.615784,430.040314 525.906494,431.091248 525.236633,430.914673 
	C519.690430,429.453125 514.181580,427.838165 508.712769,426.107544 
	C507.940857,425.863281 507.445953,424.743744 506.152679,423.260956 
	C513.678589,420.407471 519.387573,424.778595 525.872803,425.983215 
z"/>
<path fill="#FFFFFF" opacity="1.000000" stroke="none" 
	d="
M539.605469,372.009277 
	C543.377014,376.816864 546.851257,381.548920 549.995667,386.490875 
	C550.455872,387.214142 549.345581,388.936646 548.961975,390.196777 
	C548.432800,390.325623 547.903625,390.454437 547.374390,390.583252 
	C543.994690,385.608398 540.482178,380.715363 537.331238,375.599609 
	C536.569763,374.363281 535.884094,371.789124 539.605469,372.009277 
z"/>
<path fill="#FFFFFF" opacity="1.000000" stroke="none" 
	d="
M679.863037,448.629883 
	C685.697388,447.549988 691.255981,446.701691 696.842896,446.129791 
	C697.476196,446.064941 698.960144,447.704285 698.833496,448.290741 
	C698.615906,449.298218 697.561218,450.697845 696.644836,450.884125 
	C692.233826,451.780701 687.761841,452.639679 683.287659,452.786743 
	C682.100403,452.825745 680.828613,450.294403 679.863037,448.629883 
z"/>
<path fill="#FFFFFF" opacity="1.000000" stroke="none" 
	d="
M517.031006,452.999908 
	C513.757263,452.316254 510.111145,455.163605 507.296448,449.789276 
	C511.184753,448.794891 514.670227,447.796570 518.207642,447.042114 
	C520.095947,446.639343 522.151672,446.257507 523.986816,446.613586 
	C525.433960,446.894379 526.659424,448.317780 527.983337,449.233704 
	C526.880859,450.151611 525.910583,451.516876 524.647217,451.890045 
	C522.344116,452.570312 519.867310,452.662354 517.031006,452.999908 
z"/>
<path fill="#FFFFFF" opacity="1.000000" stroke="none" 
	d="
M603.132080,373.384399 
	C607.092468,370.073730 607.648865,373.546936 607.877625,375.640137 
	C608.288940,379.404877 608.134216,383.254761 607.906006,387.050446 
	C607.845398,388.059448 606.751282,389.682739 605.961182,389.792145 
	C605.068298,389.915710 603.161011,388.703552 603.115173,387.982025 
	C602.813721,383.238251 602.895691,378.470123 603.132080,373.384399 
z"/>
<path fill="#FFFFFF" opacity="1.000000" stroke="none" 
	d="
M638.732178,385.759705 
	C638.030090,386.516052 637.679016,387.139984 637.146301,387.475128 
	C635.880554,388.271271 634.528687,388.930603 633.211609,389.645203 
	C633.027344,388.049133 632.134338,386.027405 632.790039,384.935913 
	C634.851318,381.504395 637.494751,378.422577 640.075378,374.989075 
	C641.480713,375.805939 642.638916,376.479126 644.091553,377.323486 
	C642.316895,380.172302 640.658691,382.834167 638.732178,385.759705 
z"/>
<path fill="#FFFFFF" opacity="1.000000" stroke="none" 
	d="
M574.702881,380.257324 
	C573.736389,378.004028 571.316284,375.749603 574.603760,374.215668 
	C577.702515,372.769745 578.900269,375.442108 579.945740,377.658478 
	C580.958130,379.804840 581.973694,381.991302 582.579224,384.268768 
	C582.841553,385.255463 582.407959,387.068390 581.689697,387.495300 
	C580.963806,387.926697 578.995911,387.485321 578.448181,386.762482 
	C577.027771,384.887970 576.089111,382.648438 574.702881,380.257324 
z"/>
<path fill="#000000" opacity="1.000000" stroke="none" 
	d="
M658.999878,410.164734 
	C659.000000,436.613251 659.000000,462.574738 659.000000,488.767395 
	C621.601990,488.767395 584.531799,488.767395 547.230591,488.767395 
	C547.230591,461.597687 547.230591,434.527008 547.230591,407.122772 
	C548.102844,407.079041 548.887695,407.005402 549.672546,407.005280 
	C584.670410,406.999451 619.668213,406.984863 654.666016,407.044128 
	C656.448853,407.047150 659.452271,405.714874 658.999878,410.164734 
M624.082275,450.372711 
	C624.456360,449.060211 624.830505,447.747681 625.188660,446.491211 
	C615.626465,441.811432 606.575317,437.316040 597.461609,432.951385 
	C593.394775,431.003693 592.051147,431.840393 592.018250,436.197906 
	C591.955566,444.508453 592.014221,452.819794 591.992798,461.130737 
	C591.984741,464.268158 592.746094,466.001587 596.343445,464.218475 
	C605.385864,459.736450 614.486084,455.371094 624.082275,450.372711 
z"/>
<path fill="#000000" opacity="1.000000" stroke="none" 
	d="
M675.663696,629.019409 
	C683.403748,631.754578 684.955078,634.048523 684.997314,642.232300 
	C685.013550,645.390198 685.177124,648.560303 684.963806,651.703857 
	C684.454285,659.212891 682.536194,661.355164 674.128723,663.975098 
	C674.128723,652.471680 674.121826,641.103027 674.174561,629.734680 
	C674.175720,629.492920 674.862000,629.254272 675.663696,629.019409 
z"/>
<path fill="#000000" opacity="1.000000" stroke="none" 
	d="
M868.000000,680.830200 
	C867.178101,684.201538 866.356140,687.126465 865.212830,691.195068 
	C861.087708,684.029480 862.662537,676.107239 868.000000,673.935059 
	C868.000000,676.228760 868.000000,678.306213 868.000000,680.830200 
z"/>
<path fill="#000000" opacity="1.000000" stroke="none" 
	d="
M413.151154,688.442139 
	C412.667908,685.667786 412.106049,683.286377 412.045685,680.892334 
	C411.903351,675.247925 412.165497,669.591125 411.951385,663.951233 
	C411.754761,658.772217 413.524048,654.794556 418.990662,651.250610 
	C420.078094,654.659058 421.811432,657.651428 421.844666,660.662537 
	C421.936981,669.033325 421.612183,677.437439 420.877258,685.777710 
	C420.448334,690.644836 416.833893,691.835144 413.151154,688.442139 
z"/>
<path fill="#000000" opacity="1.000000" stroke="none" 
	d="
M311.664154,631.274109 
	C316.544373,640.839294 315.831696,650.443298 312.428772,659.714050 
	C311.601471,661.967957 307.417633,662.989746 304.246704,664.897156 
	C304.246704,652.228455 304.246704,640.690918 304.246704,628.664246 
	C306.851562,629.536255 309.091034,630.285950 311.664154,631.274109 
z"/>
<path fill="#000000" opacity="1.000000" stroke="none" 
	d="
M520.000000,660.223511 
	C520.000000,668.527588 520.040588,676.358032 519.962463,684.187256 
	C519.948486,685.591492 519.820618,687.251343 519.074585,688.328674 
	C518.068420,689.781372 516.128296,691.956970 515.100891,691.708191 
	C513.510681,691.323059 511.542847,689.333069 511.175476,687.699707 
	C510.324860,683.917969 510.022827,679.938354 510.069824,676.045837 
	C510.151245,669.307068 510.384338,662.540588 511.166748,655.857483 
	C511.408417,653.792969 513.641052,651.961548 514.962097,650.023376 
	C516.451172,651.656372 518.248108,653.112427 519.323120,654.983276 
	C520.065430,656.275085 519.809753,658.140381 520.000000,660.223511 
z"/>
<path fill="#000000" opacity="1.000000" stroke="none" 
	d="
M735.999390,683.592407 
	C735.858276,684.683289 735.801514,685.349182 735.562439,685.941406 
	C734.604675,688.314148 735.029419,692.532349 731.248230,691.708069 
	C729.251160,691.272705 726.544250,687.888000 726.493286,685.778503 
	C726.239563,675.272583 726.591125,664.738037 727.203064,654.241150 
	C727.289856,652.751770 729.969910,651.413513 731.449768,650.005310 
	C732.634583,651.514404 734.746094,652.961304 734.852173,654.542725 
	C735.490173,664.055908 735.668030,673.599854 735.999390,683.592407 
z"/>
<path fill="#000000" opacity="1.000000" stroke="none" 
	d="
M356.000000,676.951904 
	C356.326904,668.928223 356.448242,661.376526 357.163391,653.881531 
	C357.297852,652.472534 359.802002,651.289734 361.212616,650.002563 
	C362.471710,651.465088 364.779053,652.897400 364.822235,654.394958 
	C365.136871,665.308960 365.155914,676.240906 364.828217,687.153931 
	C364.778687,688.803650 362.444519,690.384705 361.167114,691.997498 
	C359.747711,690.530884 357.551514,689.277832 357.076721,687.551453 
	C356.190033,684.327332 356.302979,680.828247 356.000000,676.951904 
z"/>
<path fill="#FFFFFF" opacity="1.000000" stroke="none" 
	d="
M623.822754,450.665833 
	C614.486084,455.371094 605.385864,459.736450 596.343445,464.218475 
	C592.746094,466.001587 591.984741,464.268158 591.992798,461.130737 
	C592.014221,452.819794 591.955566,444.508453 592.018250,436.197906 
	C592.051147,431.840393 593.394775,431.003693 597.461609,432.951385 
	C606.575317,437.316040 615.626465,441.811432 625.188660,446.491211 
	C624.830505,447.747681 624.456360,449.060211 623.822754,450.665833 
z"/>
</svg>